<svg xmlns="http://www.w3.org/2000/svg" width="134.519" height="99.151" viewBox="0 0 134.519 99.151">
  <g id="noun-saving-3730971" transform="translate(-148.965 -131.82)">
    <path id="Trazado_2536" data-name="Trazado 2536" d="M155.872,230.97h52.89a6.891,6.891,0,0,0,6.162-3.849,49.057,49.057,0,0,0,18.985,3.849,49.575,49.575,0,0,0,0-99.15,49.127,49.127,0,0,0-29.015,9.408H155.874a6.917,6.917,0,0,0-6.909,6.909v8.436a6.843,6.843,0,0,0,1.477,4.217,6.84,6.84,0,0,0-1.477,4.217v8.437a6.844,6.844,0,0,0,1.477,4.218,6.835,6.835,0,0,0-1.477,4.217v8.437a6.844,6.844,0,0,0,1.477,4.218,6.835,6.835,0,0,0-1.477,4.217v8.437a6.844,6.844,0,0,0,1.477,4.218,6.835,6.835,0,0,0-1.477,4.217v8.437a6.915,6.915,0,0,0,6.909,6.908Zm54.416-6.907a1.53,1.53,0,0,1-1.526,1.526h-52.89a1.53,1.53,0,0,1-1.529-1.526v-8.437a1.53,1.53,0,0,1,1.529-1.526h52.89a1.53,1.53,0,0,1,1.526,1.526ZM154.343,207.19v-8.437a1.53,1.53,0,0,1,1.529-1.526h52.89a1.53,1.53,0,0,1,1.526,1.526v8.437a1.53,1.53,0,0,1-1.526,1.529h-52.89A1.531,1.531,0,0,1,154.343,207.19Zm0-16.874v-8.437a1.53,1.53,0,0,1,1.529-1.526h52.89a1.53,1.53,0,0,1,1.526,1.526v8.437a1.53,1.53,0,0,1-1.526,1.529h-52.89a1.531,1.531,0,0,1-1.529-1.53Zm0-16.873V165a1.53,1.53,0,0,1,1.529-1.526h52.89A1.53,1.53,0,0,1,210.289,165v8.437a1.53,1.53,0,0,1-1.526,1.529h-52.89A1.53,1.53,0,0,1,154.343,173.442Zm123.76,7.951a44.246,44.246,0,0,1-44.2,44.2,43.737,43.737,0,0,1-18.24-3.986v-5.978a6.837,6.837,0,0,0-1.477-4.217,6.844,6.844,0,0,0,1.477-4.218v-8.437a6.837,6.837,0,0,0-1.477-4.217,6.844,6.844,0,0,0,1.477-4.218v-8.437a6.837,6.837,0,0,0-1.477-4.217,6.844,6.844,0,0,0,1.477-4.218v-8.437a6.842,6.842,0,0,0-1.475-4.217,6.839,6.839,0,0,0,1.475-4.217v-8.436a6.885,6.885,0,0,0-2.857-5.57,43.8,43.8,0,0,1,21.1-5.367,44.246,44.246,0,0,1,44.2,44.2Zm-123.76-33.257a1.531,1.531,0,0,1,1.529-1.529h52.89a1.53,1.53,0,0,1,1.526,1.529v8.436a1.53,1.53,0,0,1-1.526,1.526h-52.89a1.53,1.53,0,0,1-1.529-1.526Z" fill="#fff"/>
    <path id="Trazado_2537" data-name="Trazado 2537" d="M379.279,238.226c-5.307,0-9.626-3.261-9.626-7.268a2.691,2.691,0,0,0-5.382,0c0,6.2,5.326,11.345,12.317,12.419v4.591a2.691,2.691,0,1,0,5.382,0v-4.591c6.991-1.076,12.315-6.222,12.315-12.419,0-4.2-2.5-9.8-14.393-12.577-4.672-1.09-10.239-3.25-10.239-7.338,0-4.007,4.319-7.268,9.626-7.268s9.624,3.261,9.624,7.268a2.691,2.691,0,0,0,5.382,0c0-6.2-5.324-11.344-12.315-12.419v-4.591a2.691,2.691,0,1,0-5.382,0v4.591c-6.992,1.074-12.317,6.222-12.317,12.419,0,4.2,2.5,9.8,14.4,12.577,4.668,1.09,10.237,3.25,10.237,7.338C388.9,234.967,384.586,238.226,379.279,238.226Z" transform="translate(-143.274 -39.608)" fill="#fff"/>
  </g>
</svg>
