<svg xmlns="http://www.w3.org/2000/svg" width="93.684" height="98.136" viewBox="0 0 93.684 98.136">
  <g id="Grupo_295" data-name="Grupo 295" transform="translate(-11392.01 5811)">
    <g id="noun-advisory-4475026" transform="translate(11392.01 -5811)">
      <path id="Trazado_2453" data-name="Trazado 2453" d="M483.111,154.562a9.489,9.489,0,1,0-9.489-9.489A9.5,9.5,0,0,0,483.111,154.562Zm0-16.659a7.171,7.171,0,1,1-7.171,7.171A7.176,7.176,0,0,1,483.111,137.9Z" transform="translate(-404.263 -112.82)" fill="#fff"/>
      <path id="Trazado_2454" data-name="Trazado 2454" d="M233.321,119.942a9.489,9.489,0,1,0-9.489-9.489A9.5,9.5,0,0,0,233.321,119.942Zm0-16.644a7.171,7.171,0,1,1-7.171,7.171A7.176,7.176,0,0,1,233.321,103.3Z" transform="translate(-199.97 -84.506)" fill="#fff"/>
      <path id="Trazado_2455" data-name="Trazado 2455" d="M158.935,323.531a.258.258,0,0,0,.092-.092,1.163,1.163,0,0,0,.51-.927v-7.326a1.167,1.167,0,0,0-1.159-1.159h-64.4a1.167,1.167,0,0,0-1.159,1.159v7.325a1.125,1.125,0,0,0,.556.958.734.734,0,0,0,.046.062l12.255,6.661v25.545a1.159,1.159,0,0,0,2.318,0V330.654h36.348v25.082a1.159,1.159,0,0,0,2.318,0V330.192ZM95.14,316.344h62.1v5.007H95.14Zm11.993,11.993L98.54,323.67H153.82l-8.608,4.667Z" transform="translate(-92.822 -258.761)" fill="#fff"/>
      <path id="Trazado_2456" data-name="Trazado 2456" d="M319.517,30.758h14.341l4.806,3.307a1.146,1.146,0,0,0,.649.2,1.129,1.129,0,0,0,.541-.139,1.154,1.154,0,0,0,.618-1.02V20.681A10.087,10.087,0,0,0,330.4,10.605h-10.88a10.076,10.076,0,0,0,0,20.153Zm0-17.835H330.4a7.763,7.763,0,0,1,7.758,7.758V30.9l-3.292-2.256a1.111,1.111,0,0,0-.649-.2h-14.7a7.758,7.758,0,0,1,0-15.517Z" transform="translate(-269.986 -10.605)" fill="#fff"/>
      <path id="Trazado_2457" data-name="Trazado 2457" d="M229.77,264.186v4.652a1.159,1.159,0,0,0,2.318,0v-4.652a1.159,1.159,0,0,0-2.318,0Z" transform="translate(-204.826 -217.051)" fill="#fff"/>
      <path id="Trazado_2458" data-name="Trazado 2458" d="M309.44,264.186v4.652a1.159,1.159,0,0,0,2.318,0v-4.652a1.159,1.159,0,0,0-2.318,0Z" transform="translate(-269.985 -217.051)" fill="#fff"/>
      <path id="Trazado_2459" data-name="Trazado 2459" d="M352.773,46.439H365.6a1.159,1.159,0,1,0,0-2.318H352.772a1.159,1.159,0,1,0,0,2.318Z" transform="translate(-304.477 -38.017)" fill="#fff"/>
      <path id="Trazado_2460" data-name="Trazado 2460" d="M352.776,77.325h6.661a1.159,1.159,0,1,0,0-2.318h-6.661a1.159,1.159,0,0,0,0,2.318Z" transform="translate(-304.48 -63.277)" fill="#fff"/>
      <path id="Trazado_2461" data-name="Trazado 2461" d="M183.994,232.946a1.167,1.167,0,0,0,1.159-1.159v-4.76a6.548,6.548,0,0,1,.046-.773,7.192,7.192,0,0,1,7.264-6.2h14.713a7.192,7.192,0,0,1,7.264,6.181,6.4,6.4,0,0,1,.031.773v4.76a1.159,1.159,0,1,0,2.318,0v-4.76c0-.34-.016-.665-.046-1a9.529,9.529,0,0,0-9.566-8.284H192.462a9.515,9.515,0,0,0-9.566,8.268c-.031.324-.046.665-.046,1v4.76a1.133,1.133,0,0,0,1.143,1.19Z" transform="translate(-166.452 -179.999)" fill="#fff"/>
      <path id="Trazado_2462" data-name="Trazado 2462" d="M415.2,238.509a1.129,1.129,0,0,0-.541.139l-10.169,5.332-22.857,3.307a1.156,1.156,0,1,0,.34,2.287l23.057-3.338a1.052,1.052,0,0,0,.371-.124l10.076-5.286a4.4,4.4,0,0,1,4.127,4.389v24.913a5.448,5.448,0,0,1-5.44,5.44h-12.1a2.673,2.673,0,0,0-1.932.8,2.737,2.737,0,0,0-.8,1.932l.032,15.672a1.159,1.159,0,1,0,2.318,0l-.046-15.67a.423.423,0,0,1,.418-.418h12.1a7.763,7.763,0,0,0,7.758-7.758V245.216a6.7,6.7,0,0,0-6.707-6.707Z" transform="translate(-328.222 -196.999)" fill="#fff"/>
      <path id="Trazado_2463" data-name="Trazado 2463" d="M456.441,328.378V315.273a1.167,1.167,0,0,0-1.159-1.159h-8.237a1.159,1.159,0,0,0,0,2.318h7.078v11.05l-11.915,2.952a2.73,2.73,0,0,0-2.071,2.658l-.031,22.718a1.159,1.159,0,0,0,2.318,0l.031-22.733a.4.4,0,0,1,.324-.4l12.8-3.168a1.172,1.172,0,0,0,.866-1.128Z" transform="translate(-376.852 -258.833)" fill="#fff"/>
      <rect id="Rect치ngulo_122" data-name="Rect치ngulo 122" width="64.572" height="7.31" transform="translate(1.282 56.623)" fill="#fff"/>
      <rect id="Rect치ngulo_123" data-name="Rect치ngulo 123" width="38.987" height="25.41" transform="translate(14.277 71.823)" fill="#fff"/>
    </g>
  </g>
</svg>
