<svg xmlns="http://www.w3.org/2000/svg" width="85.55" height="108.522" viewBox="0 0 85.55 108.522">
  <g id="noun-shield-473008" transform="translate(-152.24 -29.141)">
    <path id="Trazado_2558" data-name="Trazado 2558" d="M195.015,29.141,152.24,38.673V92.679a43.671,43.671,0,0,0,13.145,31.56,44.4,44.4,0,0,0,20.659,11.322l8.589,2.061.589.041,8.763-2.1A43.428,43.428,0,0,0,237.79,92.681V38.675Zm39.769,63.538a40.468,40.468,0,0,1-31.5,39.955l-8.268,1.986-8.268-1.986a41.37,41.37,0,0,1-19.262-10.549,40.69,40.69,0,0,1-12.238-29.406V41.085l39.769-8.862,39.769,8.863Z" transform="translate(0)" fill="#fff" fill-rule="evenodd"/>
    <path id="Trazado_2559" data-name="Trazado 2559" d="M384.109,131.352V88.14L350.42,80.633v86.288l6.964-1.67a34.524,34.524,0,0,0,26.724-33.9Z" transform="translate(-155.314 -40.354)" fill="#fff" fill-rule="evenodd"/>
  </g>
</svg>
