<svg xmlns="http://www.w3.org/2000/svg" width="70.624" height="98.875" viewBox="0 0 70.624 98.875">
  <g id="noun-certificate-2189430" transform="translate(-175.007 -35.01)">
    <path id="Trazado_2791" data-name="Trazado 2791" d="M274.328,114.983l9.547-9.305a1.766,1.766,0,0,0-.98-3.012L269.7,100.75,263.8,88.8a1.837,1.837,0,0,0-3.166,0l-5.9,11.955-13.193,1.915a1.766,1.766,0,0,0-.98,3.012l9.547,9.305-2.253,13.14a1.764,1.764,0,0,0,2.56,1.861l11.8-6.2,11.8,6.2a1.761,1.761,0,0,0,1.858-.134,1.762,1.762,0,0,0,.7-1.727Zm-3.635-.318,1.8,10.529-9.455-4.971a1.763,1.763,0,0,0-1.643,0l-9.455,4.971,1.8-10.529a1.766,1.766,0,0,0-.507-1.562l-7.649-7.454,10.57-1.536a1.764,1.764,0,0,0,1.33-.966l4.729-9.58,4.729,9.579a1.763,1.763,0,0,0,1.33.966l10.57,1.536L271.2,113.1a1.766,1.766,0,0,0-.507,1.563Z" transform="translate(-51.902 -42.21)" fill="#fff"/>
    <path id="Trazado_2792" data-name="Trazado 2792" d="M245.549,124.526,235.019,91.18a33.548,33.548,0,1,0-49.4,0l-10.53,33.346a1.766,1.766,0,0,0,2.3,2.186l12.855-4.82,8.041,11.256a1.766,1.766,0,0,0,3.137-.555l8.475-30.509c.141,0,.275.02.416.02s.275-.02.417-.021l8.475,30.509a1.77,1.77,0,0,0,1.4,1.266,1.62,1.62,0,0,0,.307.028,1.76,1.76,0,0,0,1.435-.74l8.041-11.256,12.855,4.82a1.766,1.766,0,0,0,2.3-2.183Zm-46.537,3.56-6.68-9.351a1.758,1.758,0,0,0-2.057-.627l-10.728,4.024,8.9-28.19a33.387,33.387,0,0,0,17.854,7.9ZM180.3,68.556a30.016,30.016,0,1,1,30.016,30.016A30.05,30.05,0,0,1,180.3,68.556Zm50.06,49.55a1.763,1.763,0,0,0-2.057.627l-6.68,9.351-7.29-26.247a33.386,33.386,0,0,0,17.854-7.9l8.9,28.19Z" fill="#fff"/>
  </g>
</svg>
