<svg xmlns="http://www.w3.org/2000/svg" width="95.823" height="95.254" viewBox="0 0 95.823 95.254">
  <g id="noun-deductible-3693877" transform="translate(-78.754 -8.75)">
    <path id="Trazado_2604" data-name="Trazado 2604" d="M300.573,272.786a1.536,1.536,0,1,1-1.536-1.536,1.536,1.536,0,0,1,1.536,1.536" transform="translate(-180.338 -216.41)" fill="#fff"/>
    <path id="Trazado_2605" data-name="Trazado 2605" d="M162.6,91.713h6.8a4.615,4.615,0,0,0,4.609-4.609V28.722a4.615,4.615,0,0,0-4.609-4.609h-1.615a16.891,16.891,0,0,0-33.643,0h-1.615a4.615,4.615,0,0,0-4.609,4.609v8.13l-9.32,9.7-4.073-4.18a1.53,1.53,0,0,1-.435-1.071V29.959A21.232,21.232,0,0,0,92.881,8.75,14.143,14.143,0,0,0,78.754,22.877a4.577,4.577,0,0,0,1.285,3.191l29.12,30.309L80.04,86.684a4.578,4.578,0,0,0-1.286,3.193A14.143,14.143,0,0,0,92.881,104,21.232,21.232,0,0,0,114.09,82.8V71.454a1.521,1.521,0,0,1,.436-1.071L118.6,66.2l9.318,9.7V87.1a4.615,4.615,0,0,0,4.609,4.609h10.581l8.636,8.989A10.812,10.812,0,0,0,159.5,104h15.08ZM137.134,35.337a16.859,16.859,0,0,0,27.654,0V45.623H137.134Zm13.827-23.514A13.827,13.827,0,1,1,137.134,25.65,13.843,13.843,0,0,1,150.961,11.823ZM132.525,27.186h1.615a16.768,16.768,0,0,0,.854,3.948,3.055,3.055,0,0,0-.932,2.2V45.622a3.076,3.076,0,0,0,3.073,3.073h27.654a3.076,3.076,0,0,0,3.073-3.073V33.332a3.06,3.06,0,0,0-.931-2.2,16.727,16.727,0,0,0,.854-3.948H169.4a1.538,1.538,0,0,1,1.536,1.536V87.1A1.538,1.538,0,0,1,169.4,88.64h-9.792L155.57,84.5V76.349h-7.94l-4.351-4.466V64.058h-7.625l-4.666-4.789V28.722a1.538,1.538,0,0,1,1.536-1.536ZM152.5,81.344l-1.873-1.922H152.5ZM140.207,68.731l-1.558-1.6h1.558ZM127.916,41.288V56.116l-7.173-7.362Zm-15.591,26.95a4.574,4.574,0,0,0-1.309,3.215V82.795A18.157,18.157,0,0,1,92.88,100.931,11.067,11.067,0,0,1,81.826,89.877a1.525,1.525,0,0,1,.429-1.063l29.033-30.219,5.179,5.391Zm20.2,20.4a1.538,1.538,0,0,1-1.536-1.536v-8l9.166,9.539Zm21.432,9.933L82.253,23.94a1.53,1.53,0,0,1-.427-1.063A11.067,11.067,0,0,1,92.88,11.823a18.157,18.157,0,0,1,18.136,18.136V41.3a4.586,4.586,0,0,0,1.307,3.217l54.968,56.413h-7.8a7.727,7.727,0,0,1-5.538-2.358Z" fill="#fff"/>
    <path id="Trazado_2606" data-name="Trazado 2606" d="M121.135,43.748a7.994,7.994,0,0,0-7.888,6.575l-.136.768,16.981,17.82a3.09,3.09,0,0,0,2.225.954,3.955,3.955,0,0,0,3.951-3.95v-7.1a15.114,15.114,0,0,0-15.133-15.064ZM133.2,65.915a.879.879,0,0,1-.877.877L116.455,50.149a4.934,4.934,0,0,1,4.68-3.329A12.039,12.039,0,0,1,133.2,58.811Z" transform="translate(-28.324 -28.853)" fill="#fff"/>
    <path id="Trazado_2607" data-name="Trazado 2607" d="M132.313,367.5a3.091,3.091,0,0,0-2.225.954l-16.983,17.82.136.768a8,8,0,0,0,7.89,6.575,15.116,15.116,0,0,0,15.133-15.064v-7.1a3.955,3.955,0,0,0-3.951-3.95Zm.879,11.054a12.039,12.039,0,0,1-12.06,11.991,4.933,4.933,0,0,1-4.68-3.329l15.863-16.643a.878.878,0,0,1,.877.877Z" transform="translate(-28.32 -295.758)" fill="#fff"/>
    <path id="Trazado_2608" data-name="Trazado 2608" d="M402.968,253.75H393.75v9.218h9.218ZM399.9,259.9h-3.073v-3.073H399.9Z" transform="translate(-259.689 -201.982)" fill="#fff"/>
    <path id="Trazado_2609" data-name="Trazado 2609" d="M472.968,253.75H463.75v9.218h9.218ZM469.9,259.9h-3.073v-3.073H469.9Z" transform="translate(-317.398 -201.982)" fill="#fff"/>
    <path id="Trazado_2610" data-name="Trazado 2610" d="M542.968,253.75H533.75v9.218h9.218ZM539.9,259.9h-3.073v-3.073H539.9Z" transform="translate(-375.107 -201.982)" fill="#fff"/>
    <path id="Trazado_2611" data-name="Trazado 2611" d="M472.968,323.75H463.75v9.218h9.218ZM469.9,329.9h-3.073v-3.073H469.9Z" transform="translate(-317.398 -259.692)" fill="#fff"/>
    <path id="Trazado_2612" data-name="Trazado 2612" d="M542.968,323.75H533.75v21.509h9.218ZM539.9,342.186h-3.073V326.823H539.9Z" transform="translate(-375.107 -259.692)" fill="#fff"/>
    <path id="Trazado_2613" data-name="Trazado 2613" d="M466.823,61.9v3.355H469.9V62.185h3.073V57.576a4.615,4.615,0,0,0-4.609-4.609,1.538,1.538,0,0,1-1.536-1.536V49.894h1.536a1.538,1.538,0,0,1,1.536,1.536v1.536h3.073V51.431A4.6,4.6,0,0,0,469.9,47.1V43.749h-3.073v3.073H463.75v4.609a4.615,4.615,0,0,0,4.609,4.609,1.538,1.538,0,0,1,1.536,1.536v1.536h-1.536a1.538,1.538,0,0,1-1.536-1.536V56.04H463.75v1.536A4.6,4.6,0,0,0,466.823,61.9Z" transform="translate(-317.398 -28.854)" fill="#fff"/>
  </g>
</svg>
