<svg xmlns="http://www.w3.org/2000/svg" width="40.079" height="40.079" viewBox="0 0 40.079 40.079">
  <path id="Trazado_207" data-name="Trazado 207" d="M40.556,4.493h-2.4v-2.4a.8.8,0,0,0-1.37-.569L32.774,5.527a.8.8,0,0,0-.232.569V8.973L30.8,10.712a17.631,17.631,0,1,0,1.13,1.13L33.672,10.1h2.877a.8.8,0,0,0,.569-.232l4.007-4.007a.8.8,0,0,0-.569-1.37Zm-5.61,19.233a16.092,16.092,0,1,1-5.3-11.869l-3.4,3.4a11.219,11.219,0,1,0,1.138,1.138l3.4-3.4a15.956,15.956,0,0,1,4.159,10.731Zm-16.6.569a.8.8,0,0,0,1.133,0l0,0,2.773-2.773a4.007,4.007,0,1,1-1.138-1.138l-2.773,2.773a.8.8,0,0,0,0,1.133l0,0Zm3.919-5.057a5.61,5.61,0,1,0,1.138,1.138l2.845-2.853a9.617,9.617,0,1,1-1.13-1.13ZM36.22,8.5H34.145V6.424l2.4-2.4V5.294a.8.8,0,0,0,.8.8h1.274Z" transform="translate(-1.283 -1.283)" fill="#92278f"/>
</svg>
