<svg xmlns="http://www.w3.org/2000/svg" width="90.539" height="100.641" viewBox="0 0 90.539 100.641">
  <g id="Grupo_294" data-name="Grupo 294" transform="translate(-896.184 -3688.587)">
    <g id="noun-the-money-4898893" transform="translate(712.82 3592.156)">
      <path id="Trazado_2598" data-name="Trazado 2598" d="M272.937,310.61l-2.458-1.885a11.415,11.415,0,0,1-1.387-1.161c-.527-.543-2.819-2.126-9.786.331l-12.245,3.574c-.588-3.574-4.313-5.1-6.363-5.414a.683.683,0,0,0-.226-.029H227.9c-4.418-3.272-9-4.479-13.616-3.529-7.947,1.583-13.722,9.032-15.984,12.411a7.746,7.746,0,0,0-9.3-.649l-.437.287a7.764,7.764,0,0,0-3.3,4.885,7.6,7.6,0,0,0,1.116,5.806L197.541,342.2A7.693,7.693,0,0,0,204,345.654a7.537,7.537,0,0,0,4.222-1.266l.407-.286a7.643,7.643,0,0,0,3.317-4.9,7.382,7.382,0,0,0-.211-3.845l4.735-2.805a2.615,2.615,0,0,1,1.116-.3h27.067a5.78,5.78,0,0,0,2.759-.829l25.454-17.1a2.323,2.323,0,0,0,1.04-1.84,2.253,2.253,0,0,0-.965-1.87Zm-64.012,27.972a4.645,4.645,0,0,1-1.991,2.941l-.407.271a4.675,4.675,0,0,1-2.533.769,4.562,4.562,0,0,1-3.875-2.1l-11.175-16.949a4.49,4.49,0,0,1-.663-3.483,4.757,4.757,0,0,1,1.96-2.941l.422-.286a4.949,4.949,0,0,1,2.518-.738,4.679,4.679,0,0,1,3.891,2.1L208.246,335.1a4.65,4.65,0,0,1,.679,3.483Zm36.731-9.756a2.205,2.205,0,0,1-1.011.317H217.579a6.169,6.169,0,0,0-2.684.738l-4.6,2.73-9.982-15.155c1.463-2.322,7.027-10.4,14.567-11.957,3.845-.769,7.735.331,11.521,3.3a1.6,1.6,0,0,0,.95.317h12.968c.6.15,3.725.859,3.725,3.348a1.454,1.454,0,0,0,.031.286c.015.121.045.331.076.543a.725.725,0,0,0,0,.362,3.749,3.749,0,0,1-3.108,3.679H229.672a1.546,1.546,0,1,0,0,3.091h11.566a.882.882,0,0,0,.347-.045,6.725,6.725,0,0,0,5.548-5.716l13.1-3.845c4.8-1.644,6.514-1.1,6.771-.966.452.422,1.131,1,1.6,1.387l1.568,1.161Z" transform="translate(0 -150.348)" fill="#fff"/>
      <path id="Trazado_2599" data-name="Trazado 2599" d="M345.879,158.655a2.118,2.118,0,0,1-2.142-2.081,1.546,1.546,0,1,0-3.091,0,5.158,5.158,0,0,0,3.649,4.9v1.266a1.561,1.561,0,0,0,3.122,0V161.49a5.153,5.153,0,0,0,3.665-4.9,5.248,5.248,0,0,0-5.217-5.262h-.2a2.082,2.082,0,0,1-1.931-2.1,2.134,2.134,0,0,1,4.267,0,1.553,1.553,0,0,0,3.106,0,5.265,5.265,0,0,0-3.665-4.976v-1.809a1.542,1.542,0,0,0-1.554-1.554,1.577,1.577,0,0,0-1.582,1.554v1.809a5.226,5.226,0,0,0,1.568,10.209.253.253,0,0,0,.181-.045,2.143,2.143,0,0,1,1.93,2.171,2.089,2.089,0,0,1-2.112,2.066Z" transform="translate(-113.672 -32.489)" fill="#fff"/>
      <path id="Trazado_2600" data-name="Trazado 2600" d="M314,155.256a16.979,16.979,0,1,0-16.979-16.995A17.009,17.009,0,0,0,314,155.256Zm0-30.883a13.91,13.91,0,1,1-13.9,13.889A13.923,13.923,0,0,1,314,124.373Z" transform="translate(-81.797 -18.17)" fill="#fff"/>
      <path id="Trazado_2601" data-name="Trazado 2601" d="M225.749,143.78H283.82a9.772,9.772,0,0,0,9.756-9.756V106.2a9.785,9.785,0,0,0-9.756-9.772H225.75a9.785,9.785,0,0,0-9.756,9.772v27.821a9.753,9.753,0,0,0,9.756,9.756Zm-6.68-37.577a6.681,6.681,0,0,1,6.68-6.666H283.82a6.681,6.681,0,0,1,6.68,6.666v27.821a6.667,6.667,0,0,1-6.68,6.65H225.749a6.667,6.667,0,0,1-6.68-6.65Z" transform="translate(-22.585)" fill="#fff"/>
      <path id="Trazado_2602" data-name="Trazado 2602" d="M243.064,134.6a1.523,1.523,0,0,0,1.554-1.508v-6.831a8.009,8.009,0,0,0,4.8-5.324H258.1a1.531,1.531,0,1,0,0-3.061h-9.953a1.531,1.531,0,0,0-1.554,1.447,5.02,5.02,0,0,1-3.906,4.327,1.579,1.579,0,0,0-1.161,1.508v7.932a1.531,1.531,0,0,0,1.539,1.508Z" transform="translate(-41.242 -15.669)" fill="#fff"/>
      <path id="Trazado_2603" data-name="Trazado 2603" d="M411.32,203.961a1.557,1.557,0,0,0,1.554,1.538h9.953a1.585,1.585,0,0,0,1.554-1.447,5.06,5.06,0,0,1,3.891-4.372,1.515,1.515,0,0,0,1.161-1.478l0-7.917a1.546,1.546,0,0,0-3.091,0v6.785a8.092,8.092,0,0,0-4.794,5.338h-8.686a1.539,1.539,0,0,0-1.538,1.554Z" transform="translate(-165.315 -67.479)" fill="#fff"/>
    </g>
    <rect id="Rectángulo_124" data-name="Rectángulo 124" width="15" height="33" rx="7.5" transform="translate(896.184 3761.87) rotate(-34)" fill="#fff"/>
  </g>
</svg>
