<svg xmlns="http://www.w3.org/2000/svg" width="14.988" height="34.342" viewBox="0 0 14.988 34.342">
  <g id="noun-money-55716" transform="translate(-144.147 -117.038)">
    <path id="Trazado_2788" data-name="Trazado 2788" d="M286.373,164.506a7.494,7.494,0,1,1,7.494-7.494.944.944,0,0,1-1.888,0,5.605,5.605,0,1,0-5.605,5.605.944.944,0,0,1,0,1.888Z" transform="translate(-134.732 -29.057)" fill="#92278f"/>
    <path id="Trazado_2789" data-name="Trazado 2789" d="M286.373,289.386a7.5,7.5,0,0,1-7.494-7.494.944.944,0,0,1,1.888,0,5.605,5.605,0,1,0,5.605-5.605.944.944,0,0,1,0-1.888,7.494,7.494,0,1,1,0,14.988Z" transform="translate(-134.732 -140.779)" fill="#92278f"/>
    <path id="Trazado_2790" data-name="Trazado 2790" d="M339.183,151.38a.932.932,0,0,1-.944-.944V117.982a.944.944,0,0,1,1.888,0v32.394a.947.947,0,0,1-.944,1Z" transform="translate(-187.838 0)" fill="#92278f"/>
  </g>
</svg>
