<svg xmlns="http://www.w3.org/2000/svg" width="55.558" height="48.414" viewBox="0 0 55.558 48.414">
  <g id="noun-education-2504151" transform="translate(-70.047 -91.809)">
    <path id="Trazado_2357" data-name="Trazado 2357" d="M131.3,103.831l-5.144,2.362-4.349,2-4.4,2.02-7.28,3.345c-1.479.679-2.969,1.33-4.432,2.037l-.066.033H107.3c-1.231-.563-2.456-1.131-3.687-1.694q-3.618-1.664-7.236-3.323-2.533-1.167-5.067-2.329c-1.209-.557-2.423-1.109-3.632-1.667q-2.964-1.366-5.933-2.726a1.1,1.1,0,0,1-.116-.055v2.859l2.555-1.176q3.071-1.407,6.137-2.82l7.418-3.411,6.408-2.947c1.032-.475,2.081-.927,3.1-1.424a.166.166,0,0,0,.044-.022h-1.672l2.555,1.176q3.071,1.407,6.137,2.82l7.418,3.411,6.408,2.947c1.032.475,2.064.955,3.1,1.424a.165.165,0,0,1,.044.022,1.766,1.766,0,0,0,1.275.166,1.655,1.655,0,0,0,.392-3.024c-.855-.392-1.716-.789-2.572-1.181l-6.165-2.831q-3.709-1.705-7.423-3.411l-6.413-2.947c-1.021-.469-2.042-.944-3.063-1.407a1.776,1.776,0,0,0-1.308-.182,4.318,4.318,0,0,0-.436.188c-.11.05-.226.1-.337.155l-1.584.729q-2.906,1.333-5.812,2.671-3.7,1.705-7.407,3.405l-6.667,3.063c-1.22.557-2.439,1.12-3.654,1.678-.055.028-.11.05-.171.077a1.665,1.665,0,0,0,0,2.859l5.194,2.384c1.435.662,2.87,1.319,4.3,1.981,1.485.684,2.975,1.363,4.46,2.048l7.28,3.345c1.463.673,2.92,1.347,4.382,2.015a1.8,1.8,0,0,0,1.33.193,4.74,4.74,0,0,0,.458-.193c.171-.077.342-.16.513-.237.762-.348,1.523-.7,2.285-1.049q3.568-1.639,7.142-3.284l5.652-2.6,3.1-1.424,6.485-2.98.431-.2a1.655,1.655,0,0,0-.392-3.025,1.837,1.837,0,0,0-1.264.16Z" transform="translate(-8.168)" fill="#92278f"/>
    <path id="Trazado_2358" data-name="Trazado 2358" d="M205.448,253.319v12.926a18.011,18.011,0,0,1-.033,2.114c.022-.149.039-.293.061-.442a4.37,4.37,0,0,1-.265,1l.166-.4a4.344,4.344,0,0,1-.353.673c-.033.05-.066.1-.1.149-.155.232.221-.254.1-.138-.088.094-.171.2-.265.293s-.177.166-.265.243c-.193.171.3-.21.138-.1-.05.033-.1.072-.149.1a4.283,4.283,0,0,1-.7.375l.4-.166a3.991,3.991,0,0,1-1,.265c.149-.022.293-.039.442-.061a8.764,8.764,0,0,1-1.076.033H181.534c-.944,0-1.893.006-2.837,0a4.7,4.7,0,0,1-.552-.033c.149.022.293.039.442.061a4.371,4.371,0,0,1-1-.265l.4.166a4.344,4.344,0,0,1-.673-.353c-.05-.033-.1-.066-.149-.1-.232-.155.254.221.138.1-.094-.088-.2-.171-.293-.265s-.166-.177-.243-.265c-.171-.193.21.3.1.138-.033-.05-.072-.1-.1-.149a4.282,4.282,0,0,1-.375-.7l.166.4a3.991,3.991,0,0,1-.265-1c.022.149.039.292.061.442a15.133,15.133,0,0,1-.033-1.8V253.319l-2.489,1.429,5.552,2.55q4.371,2,8.737,4.012c.646.3,1.286.6,1.932.889a1.855,1.855,0,0,0,1.711,0c.072-.033.138-.061.2-.094l1-.464q4.164-1.912,8.334-3.83,3.287-1.507,6.568-3.019l.1-.05a1.655,1.655,0,0,0-.392-3.024,1.894,1.894,0,0,0-1.275.166q-2.748,1.267-5.5,2.528l-8.715,4.007-2.014.927h1.672q-2.749-1.267-5.5-2.528l-8.715-4.007-2.014-.927a1.732,1.732,0,0,0-1.672,0,1.669,1.669,0,0,0-.822,1.429v13.135c0,.58-.039,1.176.017,1.755a5.881,5.881,0,0,0,1.6,3.587,5.788,5.788,0,0,0,3.538,1.683,11.059,11.059,0,0,0,1.352.033h23.423a5.8,5.8,0,0,0,4.3-1.794,5.875,5.875,0,0,0,1.529-3.582c.017-.215.011-.431.011-.646V253.319a1.675,1.675,0,0,0-1.656-1.656,1.693,1.693,0,0,0-1.689,1.656Z" transform="translate(-92.572 -143.72)" fill="#92278f"/>
    <path id="Trazado_2359" data-name="Trazado 2359" d="M82.549,224.621V210.332a1.656,1.656,0,0,0-3.311,0v14.289a1.656,1.656,0,1,0,3.311,0Z" transform="translate(-8.264 -105.072)" fill="#92278f"/>
    <g id="Grupo_144" data-name="Grupo 144" transform="translate(70.056 139.682)">
      <path id="Trazado_2360" data-name="Trazado 2360" d="M.311-1.837a.1.1,0,0,1-.03.011.155.155,0,0,1-.032,0,.114.114,0,0,1-.08-.027.1.1,0,0,1-.028-.077A.1.1,0,0,1,.169-2a.111.111,0,0,1,.08-.028.1.1,0,0,1,.032,0,.119.119,0,0,1,.03.011v.041a.119.119,0,0,0-.028-.014.1.1,0,0,0-.03,0,.052.052,0,0,0-.043.019.068.068,0,0,0-.016.047.075.075,0,0,0,.016.05.053.053,0,0,0,.043.017.1.1,0,0,0,.03,0,.119.119,0,0,0,.028-.014Z" transform="translate(-0.141 2.031)" fill="#92278f"/>
    </g>
    <g id="Grupo_145" data-name="Grupo 145" transform="translate(70.268 139.733)">
      <path id="Trazado_2361" data-name="Trazado 2361" d="M.346-1.487l-.013,0-.013,0a.038.038,0,0,0-.03.013.05.05,0,0,0-.009.033v.069H.234v-.151H.282V-1.5a.063.063,0,0,1,.02-.02.056.056,0,0,1,.03-.008h0l.009,0Z" transform="translate(-0.234 1.531)" fill="#92278f"/>
    </g>
    <g id="Grupo_146" data-name="Grupo 146" transform="translate(70.393 139.733)">
      <path id="Trazado_2362" data-name="Trazado 2362" d="M.286-1.452v.014H.174a.038.038,0,0,0,.011.025.048.048,0,0,0,.03.008.111.111,0,0,0,.032,0A.254.254,0,0,0,.28-1.422v.036a.2.2,0,0,1-.035.009.21.21,0,0,1-.035,0,.088.088,0,0,1-.063-.02.074.074,0,0,1-.022-.058.073.073,0,0,1,.022-.057.083.083,0,0,1,.061-.022.073.073,0,0,1,.055.022.075.075,0,0,1,.022.057ZM.237-1.468A.031.031,0,0,0,.229-1.49.028.028,0,0,0,.207-1.5a.034.034,0,0,0-.022.008.034.034,0,0,0-.011.024Z" transform="translate(-0.125 1.531)" fill="#92278f"/>
    </g>
    <g id="Grupo_147" data-name="Grupo 147" transform="translate(70.581 139.733)">
      <path id="Trazado_2363" data-name="Trazado 2363" d="M.2-1.445a.046.046,0,0,0-.024,0,.017.017,0,0,0-.008.016.016.016,0,0,0,.006.014.028.028,0,0,0,.017,0,.028.028,0,0,0,.022-.009A.034.034,0,0,0,.227-1.44v0Zm.073-.019v.087H.227V-1.4a.057.057,0,0,1-.022.02.074.074,0,0,1-.028,0,.054.054,0,0,1-.038-.013.049.049,0,0,1-.014-.036A.041.041,0,0,1,.142-1.46.1.1,0,0,1,.2-1.473H.227v0a.017.017,0,0,0-.009-.016A.046.046,0,0,0,.191-1.5a.145.145,0,0,0-.03,0,.106.106,0,0,0-.024.009v-.036A.172.172,0,0,1,.169-1.53l.03,0a.088.088,0,0,1,.058.016.065.065,0,0,1,.019.052Z" transform="translate(-0.125 1.531)" fill="#92278f"/>
    </g>
    <g id="Grupo_148" data-name="Grupo 148" transform="translate(70.757 139.693)">
      <path id="Trazado_2364" data-name="Trazado 2364" d="M.1-1.922v.043h.05v.035H.1v.065a.024.024,0,0,0,0,.014.031.031,0,0,0,.017,0H.15v.035H.109a.061.061,0,0,1-.041-.011A.061.061,0,0,1,.056-1.78v-.065H.031v-.035H.056v-.043Z" transform="translate(-0.031 1.922)" fill="#92278f"/>
    </g>
    <g id="Grupo_149" data-name="Grupo 149" transform="translate(70.899 139.733)">
      <path id="Trazado_2365" data-name="Trazado 2365" d="M.286-1.452v.014H.174a.038.038,0,0,0,.011.025.048.048,0,0,0,.03.008.111.111,0,0,0,.032,0A.254.254,0,0,0,.28-1.422v.036a.2.2,0,0,1-.035.009.21.21,0,0,1-.035,0,.088.088,0,0,1-.063-.02.074.074,0,0,1-.022-.058.073.073,0,0,1,.022-.057.083.083,0,0,1,.061-.022.073.073,0,0,1,.055.022.075.075,0,0,1,.022.057ZM.237-1.468A.031.031,0,0,0,.229-1.49.028.028,0,0,0,.207-1.5a.034.034,0,0,0-.022.008.034.034,0,0,0-.011.024Z" transform="translate(-0.125 1.531)" fill="#92278f"/>
    </g>
    <g id="Grupo_150" data-name="Grupo 150" transform="translate(71.086 139.677)">
      <path id="Trazado_2366" data-name="Trazado 2366" d="M.239-2v-.08H.287v.21H.239V-1.89a.07.07,0,0,1-.024.02.069.069,0,0,1-.027,0,.057.057,0,0,1-.046-.022.087.087,0,0,1-.017-.057A.089.089,0,0,1,.142-2a.058.058,0,0,1,.046-.022.057.057,0,0,1,.027.006A.086.086,0,0,1,.239-2Zm-.032.1a.026.026,0,0,0,.022-.011.049.049,0,0,0,.009-.033.048.048,0,0,0-.009-.032.025.025,0,0,0-.022-.013.026.026,0,0,0-.024.013.053.053,0,0,0-.008.032.054.054,0,0,0,.008.033A.027.027,0,0,0,.207-1.9Z" transform="translate(-0.125 2.078)" fill="#92278f"/>
    </g>
    <g id="Grupo_151" data-name="Grupo 151" transform="translate(71.39 139.677)">
      <path id="Trazado_2367" data-name="Trazado 2367" d="M.315-1.9a.026.026,0,0,0,.022-.011.049.049,0,0,0,.009-.033.048.048,0,0,0-.009-.032.025.025,0,0,0-.022-.013.03.03,0,0,0-.025.013.053.053,0,0,0-.008.032.054.054,0,0,0,.008.033A.031.031,0,0,0,.315-1.9ZM.282-2A.087.087,0,0,1,.3-2.017a.065.065,0,0,1,.028-.006A.056.056,0,0,1,.378-2,.091.091,0,0,1,.4-1.944a.089.089,0,0,1-.017.057.055.055,0,0,1-.046.022.079.079,0,0,1-.028,0,.07.07,0,0,1-.022-.02v.022H.234v-.21H.282Z" transform="translate(-0.234 2.078)" fill="#92278f"/>
    </g>
    <g id="Grupo_152" data-name="Grupo 152" transform="translate(71.567 139.736)">
      <path id="Trazado_2368" data-name="Trazado 2368" d="M.031-1.5H.08l.039.1.035-.1H.2L.14-1.334A.071.071,0,0,1,.116-1.3a.051.051,0,0,1-.033.011H.056V-1.32H.071a.025.025,0,0,0,.017,0A.025.025,0,0,0,.1-1.339l0,0Z" transform="translate(-0.031 1.5)" fill="#92278f"/>
    </g>
    <g id="Grupo_153" data-name="Grupo 153" transform="translate(71.854 139.733)">
      <path id="Trazado_2369" data-name="Trazado 2369" d="M.267-1.523v.038A.119.119,0,0,0,.237-1.5L.21-1.5a.038.038,0,0,0-.02,0,.01.01,0,0,0-.006.009.01.01,0,0,0,0,.009.04.04,0,0,0,.019,0l.008,0a.1.1,0,0,1,.05.016.039.039,0,0,1,.013.033.041.041,0,0,1-.019.036.1.1,0,0,1-.052.011.168.168,0,0,1-.032,0,.144.144,0,0,1-.032-.006v-.036a.094.094,0,0,0,.028.011.14.14,0,0,0,.032,0,.045.045,0,0,0,.02,0,.014.014,0,0,0,.008-.013.011.011,0,0,0,0-.009.059.059,0,0,0-.02,0l-.008,0a.081.081,0,0,1-.046-.014.04.04,0,0,1-.013-.033.039.039,0,0,1,.016-.035.086.086,0,0,1,.05-.013.139.139,0,0,1,.028,0l.032,0Z" transform="translate(-0.141 1.531)" fill="#92278f"/>
    </g>
    <g id="Grupo_154" data-name="Grupo 154" transform="translate(72.028 139.677)">
      <path id="Trazado_2370" data-name="Trazado 2370" d="M.386-1.96v.091H.337v-.069a.171.171,0,0,0,0-.027.052.052,0,0,0,0-.013.017.017,0,0,0-.008-.006.021.021,0,0,0-.011,0,.03.03,0,0,0-.025.013.053.053,0,0,0-.008.032v.074H.234v-.21H.282V-2a.076.076,0,0,1,.024-.019.062.062,0,0,1,.027-.006.049.049,0,0,1,.039.016.069.069,0,0,1,.014.047Z" transform="translate(-0.234 2.078)" fill="#92278f"/>
    </g>
    <g id="Grupo_155" data-name="Grupo 155" transform="translate(72.214 139.733)">
      <path id="Trazado_2371" data-name="Trazado 2371" d="M.2-1.445a.046.046,0,0,0-.024,0,.017.017,0,0,0-.008.016.016.016,0,0,0,.006.014.028.028,0,0,0,.017,0,.028.028,0,0,0,.022-.009A.034.034,0,0,0,.227-1.44v0Zm.073-.019v.087H.227V-1.4a.057.057,0,0,1-.022.02.074.074,0,0,1-.028,0,.054.054,0,0,1-.038-.013.049.049,0,0,1-.014-.036A.041.041,0,0,1,.142-1.46.1.1,0,0,1,.2-1.473H.227v0a.017.017,0,0,0-.009-.016A.046.046,0,0,0,.191-1.5a.145.145,0,0,0-.03,0,.106.106,0,0,0-.024.009v-.036A.172.172,0,0,1,.169-1.53l.03,0a.088.088,0,0,1,.058.016.065.065,0,0,1,.019.052Z" transform="translate(-0.125 1.531)" fill="#92278f"/>
    </g>
    <g id="Grupo_156" data-name="Grupo 156" transform="translate(72.402 139.733)">
      <path id="Trazado_2372" data-name="Trazado 2372" d="M.267-1.523v.038A.119.119,0,0,0,.237-1.5L.21-1.5a.038.038,0,0,0-.02,0,.01.01,0,0,0-.006.009.01.01,0,0,0,0,.009.04.04,0,0,0,.019,0l.008,0a.1.1,0,0,1,.05.016.039.039,0,0,1,.013.033.041.041,0,0,1-.019.036.1.1,0,0,1-.052.011.168.168,0,0,1-.032,0,.144.144,0,0,1-.032-.006v-.036a.094.094,0,0,0,.028.011.14.14,0,0,0,.032,0,.045.045,0,0,0,.02,0,.014.014,0,0,0,.008-.013.011.011,0,0,0,0-.009.059.059,0,0,0-.02,0l-.008,0a.081.081,0,0,1-.046-.014.04.04,0,0,1-.013-.033.039.039,0,0,1,.016-.035.086.086,0,0,1,.05-.013.139.139,0,0,1,.028,0l.032,0Z" transform="translate(-0.141 1.531)" fill="#92278f"/>
    </g>
    <g id="Grupo_157" data-name="Grupo 157" transform="translate(72.575 139.677)">
      <path id="Trazado_2373" data-name="Trazado 2373" d="M.386-1.96v.091H.337v-.069a.171.171,0,0,0,0-.027.052.052,0,0,0,0-.013.017.017,0,0,0-.008-.006.021.021,0,0,0-.011,0,.03.03,0,0,0-.025.013.053.053,0,0,0-.008.032v.074H.234v-.21H.282V-2a.076.076,0,0,1,.024-.019.062.062,0,0,1,.027-.006.049.049,0,0,1,.039.016.069.069,0,0,1,.014.047Z" transform="translate(-0.234 2.078)" fill="#92278f"/>
    </g>
    <g id="Grupo_158" data-name="Grupo 158" transform="translate(72.761 139.733)">
      <path id="Trazado_2374" data-name="Trazado 2374" d="M.2-1.445a.046.046,0,0,0-.024,0,.017.017,0,0,0-.008.016.016.016,0,0,0,.006.014.028.028,0,0,0,.017,0,.028.028,0,0,0,.022-.009A.034.034,0,0,0,.227-1.44v0Zm.073-.019v.087H.227V-1.4a.057.057,0,0,1-.022.02.074.074,0,0,1-.028,0,.054.054,0,0,1-.038-.013.049.049,0,0,1-.014-.036A.041.041,0,0,1,.142-1.46.1.1,0,0,1,.2-1.473H.227v0a.017.017,0,0,0-.009-.016A.046.046,0,0,0,.191-1.5a.145.145,0,0,0-.03,0,.106.106,0,0,0-.024.009v-.036A.172.172,0,0,1,.169-1.53l.03,0a.088.088,0,0,1,.058.016.065.065,0,0,1,.019.052Z" transform="translate(-0.125 1.531)" fill="#92278f"/>
    </g>
    <g id="Grupo_159" data-name="Grupo 159" transform="translate(72.958 139.733)">
      <path id="Trazado_2375" data-name="Trazado 2375" d="M.386-1.468v.091H.337v-.071a.154.154,0,0,0,0-.025.052.052,0,0,0,0-.013.017.017,0,0,0-.008-.006.021.021,0,0,0-.011,0,.03.03,0,0,0-.025.013.053.053,0,0,0-.008.032v.074H.234v-.151H.282v.022a.076.076,0,0,1,.024-.019.062.062,0,0,1,.027-.006.049.049,0,0,1,.039.016.069.069,0,0,1,.014.047Z" transform="translate(-0.234 1.531)" fill="#92278f"/>
    </g>
    <g id="Grupo_160" data-name="Grupo 160" transform="translate(73.154 139.677)">
      <path id="Trazado_2376" data-name="Trazado 2376" d="M.234-2.078H.282v.114L.337-2.02H.394L.32-1.95l.08.082H.342l-.06-.063v.063H.234Z" transform="translate(-0.234 2.078)" fill="#92278f"/>
    </g>
    <g id="Grupo_161" data-name="Grupo 161" transform="translate(73.425 139.733)">
      <path id="Trazado_2377" data-name="Trazado 2377" d="M.267-1.523v.038A.119.119,0,0,0,.237-1.5L.21-1.5a.038.038,0,0,0-.02,0,.01.01,0,0,0-.006.009.01.01,0,0,0,0,.009.04.04,0,0,0,.019,0l.008,0a.1.1,0,0,1,.05.016.039.039,0,0,1,.013.033.041.041,0,0,1-.019.036.1.1,0,0,1-.052.011.168.168,0,0,1-.032,0,.144.144,0,0,1-.032-.006v-.036a.094.094,0,0,0,.028.011.14.14,0,0,0,.032,0,.045.045,0,0,0,.02,0,.014.014,0,0,0,.008-.013.011.011,0,0,0,0-.009.059.059,0,0,0-.02,0l-.008,0a.081.081,0,0,1-.046-.014.04.04,0,0,1-.013-.033.039.039,0,0,1,.016-.035.086.086,0,0,1,.05-.013.139.139,0,0,1,.028,0l.032,0Z" transform="translate(-0.141 1.531)" fill="#92278f"/>
    </g>
    <g id="Grupo_162" data-name="Grupo 162" transform="translate(73.598 139.677)">
      <path id="Trazado_2378" data-name="Trazado 2378" d="M.234-2.02H.282v.151H.234Zm0-.058H.282v.039H.234Z" transform="translate(-0.234 2.078)" fill="#92278f"/>
    </g>
    <g id="Grupo_163" data-name="Grupo 163" transform="translate(73.693 139.733)">
      <path id="Trazado_2379" data-name="Trazado 2379" d="M.386-1.468v.091H.337v-.071a.154.154,0,0,0,0-.025.052.052,0,0,0,0-.013.017.017,0,0,0-.008-.006.021.021,0,0,0-.011,0,.03.03,0,0,0-.025.013.053.053,0,0,0-.008.032v.074H.234v-.151H.282v.022a.076.076,0,0,1,.024-.019.062.062,0,0,1,.027-.006.049.049,0,0,1,.039.016.069.069,0,0,1,.014.047Z" transform="translate(-0.234 1.531)" fill="#92278f"/>
    </g>
    <g id="Grupo_164" data-name="Grupo 164" transform="translate(73.878 139.733)">
      <path id="Trazado_2380" data-name="Trazado 2380" d="M.239-1.4a.074.074,0,0,1-.024.019.053.053,0,0,1-.027.006A.057.057,0,0,1,.142-1.4a.085.085,0,0,1-.017-.055.086.086,0,0,1,.017-.055.058.058,0,0,1,.046-.022.057.057,0,0,1,.027.006.086.086,0,0,1,.024.019v-.022H.287v.136a.067.067,0,0,1-.024.055.1.1,0,0,1-.066.02.139.139,0,0,1-.028,0,.113.113,0,0,1-.025-.006v-.038a.1.1,0,0,0,.024.011.07.07,0,0,0,.025,0,.049.049,0,0,0,.035-.011.046.046,0,0,0,.011-.033ZM.207-1.5a.027.027,0,0,0-.024.011.053.053,0,0,0-.008.032.051.051,0,0,0,.008.032.027.027,0,0,0,.024.011.026.026,0,0,0,.022-.011.046.046,0,0,0,.009-.032.048.048,0,0,0-.009-.032A.027.027,0,0,0,.207-1.5Z" transform="translate(-0.125 1.531)" fill="#92278f"/>
    </g>
    <g id="Grupo_165" data-name="Grupo 165" transform="translate(74.087 139.677)">
      <path id="Trazado_2381" data-name="Trazado 2381" d="M.386-1.96v.091H.337v-.069a.171.171,0,0,0,0-.027.052.052,0,0,0,0-.013.017.017,0,0,0-.008-.006.021.021,0,0,0-.011,0,.03.03,0,0,0-.025.013.053.053,0,0,0-.008.032v.074H.234v-.21H.282V-2a.076.076,0,0,1,.024-.019.062.062,0,0,1,.027-.006.049.049,0,0,1,.039.016.069.069,0,0,1,.014.047Z" transform="translate(-0.234 2.078)" fill="#92278f"/>
    </g>
    <g id="Grupo_166" data-name="Grupo 166" transform="translate(70.047 139.953)">
      <path id="Trazado_2382" data-name="Trazado 2382" d="M.165-2.078v.032H.138a.022.022,0,0,0-.016,0,.017.017,0,0,0,0,.013v.009H.16v.035H.119v.117H.072v-.117H.047V-2.02H.072v-.009a.046.046,0,0,1,.013-.036.063.063,0,0,1,.043-.013Z" transform="translate(-0.047 2.078)" fill="#92278f"/>
    </g>
    <g id="Grupo_167" data-name="Grupo 167" transform="translate(70.186 140.009)">
      <path id="Trazado_2383" data-name="Trazado 2383" d="M.346-1.487l-.013,0-.013,0a.038.038,0,0,0-.03.013.05.05,0,0,0-.009.033v.069H.234v-.151H.282V-1.5a.063.063,0,0,1,.02-.02.056.056,0,0,1,.03-.008h0l.009,0Z" transform="translate(-0.234 1.531)" fill="#92278f"/>
    </g>
    <g id="Grupo_168" data-name="Grupo 168" transform="translate(70.311 140.009)">
      <path id="Trazado_2384" data-name="Trazado 2384" d="M.207-1.5a.032.032,0,0,0-.025.011.056.056,0,0,0-.008.033.062.062,0,0,0,.008.035.031.031,0,0,0,.025.011.027.027,0,0,0,.024-.011A.056.056,0,0,0,.24-1.452a.05.05,0,0,0-.009-.033A.028.028,0,0,0,.207-1.5Zm0-.035a.084.084,0,0,1,.061.022.075.075,0,0,1,.022.057.076.076,0,0,1-.022.058.087.087,0,0,1-.061.02.086.086,0,0,1-.061-.02.078.078,0,0,1-.02-.058.077.077,0,0,1,.02-.057A.083.083,0,0,1,.207-1.531Z" transform="translate(-0.125 1.531)" fill="#92278f"/>
    </g>
    <g id="Grupo_169" data-name="Grupo 169" transform="translate(70.512 140.009)">
      <path id="Trazado_2385" data-name="Trazado 2385" d="M.373-1.5A.057.057,0,0,1,.4-1.523a.053.053,0,0,1,.028-.008.052.052,0,0,1,.039.016.069.069,0,0,1,.014.047v.091H.428v-.088a.039.039,0,0,0,0-.022.017.017,0,0,0-.016-.008.024.024,0,0,0-.02.011.056.056,0,0,0-.008.033v.074H.331v-.079a.065.065,0,0,0,0-.032.014.014,0,0,0-.014-.008.025.025,0,0,0-.022.013.053.053,0,0,0-.008.032v.074H.234v-.151H.282v.022A.071.071,0,0,1,.3-1.525a.058.058,0,0,1,.025-.006.047.047,0,0,1,.027.008.055.055,0,0,1,.019.02Z" transform="translate(-0.234 1.531)" fill="#92278f"/>
    </g>
    <g id="Grupo_170" data-name="Grupo 170" transform="translate(70.875 139.969)">
      <path id="Trazado_2386" data-name="Trazado 2386" d="M.1-1.922v.043h.05v.035H.1v.065a.024.024,0,0,0,0,.014.031.031,0,0,0,.017,0H.15v.035H.109a.061.061,0,0,1-.041-.011A.061.061,0,0,1,.056-1.78v-.065H.031v-.035H.056v-.043Z" transform="translate(-0.031 1.922)" fill="#92278f"/>
    </g>
    <g id="Grupo_171" data-name="Grupo 171" transform="translate(71.027 139.953)">
      <path id="Trazado_2387" data-name="Trazado 2387" d="M.386-1.96v.091H.337v-.069a.171.171,0,0,0,0-.027.052.052,0,0,0,0-.013.017.017,0,0,0-.008-.006.021.021,0,0,0-.011,0,.03.03,0,0,0-.025.013.053.053,0,0,0-.008.032v.074H.234v-.21H.282V-2a.076.076,0,0,1,.024-.019.062.062,0,0,1,.027-.006.049.049,0,0,1,.039.016.069.069,0,0,1,.014.047Z" transform="translate(-0.234 2.078)" fill="#92278f"/>
    </g>
    <g id="Grupo_172" data-name="Grupo 172" transform="translate(71.213 140.009)">
      <path id="Trazado_2388" data-name="Trazado 2388" d="M.286-1.452v.014H.174a.038.038,0,0,0,.011.025.048.048,0,0,0,.03.008.111.111,0,0,0,.032,0A.254.254,0,0,0,.28-1.422v.036a.2.2,0,0,1-.035.009.21.21,0,0,1-.035,0,.088.088,0,0,1-.063-.02.074.074,0,0,1-.022-.058.073.073,0,0,1,.022-.057.083.083,0,0,1,.061-.022.073.073,0,0,1,.055.022.075.075,0,0,1,.022.057ZM.237-1.468A.031.031,0,0,0,.229-1.49.028.028,0,0,0,.207-1.5a.034.034,0,0,0-.022.008.034.034,0,0,0-.011.024Z" transform="translate(-0.125 1.531)" fill="#92278f"/>
    </g>
    <g id="Grupo_173" data-name="Grupo 173" transform="translate(71.508 139.961)">
      <path id="Trazado_2389" data-name="Trazado 2389" d="M.25-2H.308l.073.139V-2H.43v.2H.373L.3-1.937V-1.8H.25Z" transform="translate(-0.25 2)" fill="#92278f"/>
    </g>
    <g id="Grupo_174" data-name="Grupo 174" transform="translate(71.727 140.009)">
      <path id="Trazado_2390" data-name="Trazado 2390" d="M.207-1.5a.032.032,0,0,0-.025.011.056.056,0,0,0-.008.033.062.062,0,0,0,.008.035.031.031,0,0,0,.025.011.027.027,0,0,0,.024-.011A.056.056,0,0,0,.24-1.452a.05.05,0,0,0-.009-.033A.028.028,0,0,0,.207-1.5Zm0-.035a.084.084,0,0,1,.061.022.075.075,0,0,1,.022.057.076.076,0,0,1-.022.058.087.087,0,0,1-.061.02.086.086,0,0,1-.061-.02.078.078,0,0,1-.02-.058.077.077,0,0,1,.02-.057A.083.083,0,0,1,.207-1.531Z" transform="translate(-0.125 1.531)" fill="#92278f"/>
    </g>
    <g id="Grupo_175" data-name="Grupo 175" transform="translate(71.926 140.012)">
      <path id="Trazado_2391" data-name="Trazado 2391" d="M.219-1.407V-1.5H.266v.1a.017.017,0,0,0,0,.011.025.025,0,0,0,.008.008l.011,0a.026.026,0,0,0,.022-.011.046.046,0,0,0,.009-.032V-1.5H.37v.151H.321v-.022A.07.07,0,0,1,.3-1.35a.064.064,0,0,1-.025,0,.052.052,0,0,1-.041-.016.07.07,0,0,1-.013-.046Z" transform="translate(-0.219 1.5)" fill="#92278f"/>
    </g>
    <g id="Grupo_176" data-name="Grupo 176" transform="translate(72.124 140.009)">
      <path id="Trazado_2392" data-name="Trazado 2392" d="M.386-1.468v.091H.337v-.071a.154.154,0,0,0,0-.025.052.052,0,0,0,0-.013.017.017,0,0,0-.008-.006.021.021,0,0,0-.011,0,.03.03,0,0,0-.025.013.053.053,0,0,0-.008.032v.074H.234v-.151H.282v.022a.076.076,0,0,1,.024-.019.062.062,0,0,1,.027-.006.049.049,0,0,1,.039.016.069.069,0,0,1,.014.047Z" transform="translate(-0.234 1.531)" fill="#92278f"/>
    </g>
    <g id="Grupo_177" data-name="Grupo 177" transform="translate(72.418 139.961)">
      <path id="Trazado_2393" data-name="Trazado 2393" d="M.25-2H.337A.089.089,0,0,1,.4-1.983a.062.062,0,0,1,.02.049.061.061,0,0,1-.02.049.087.087,0,0,1-.058.017H.3V-1.8H.25ZM.3-1.962v.057H.33a.038.038,0,0,0,.024-.006.03.03,0,0,0,.008-.022.025.025,0,0,0-.008-.02A.034.034,0,0,0,.33-1.962Z" transform="translate(-0.25 2)" fill="#92278f"/>
    </g>
    <g id="Grupo_178" data-name="Grupo 178" transform="translate(72.618 140.009)">
      <path id="Trazado_2394" data-name="Trazado 2394" d="M.346-1.487l-.013,0-.013,0a.038.038,0,0,0-.03.013.05.05,0,0,0-.009.033v.069H.234v-.151H.282V-1.5a.063.063,0,0,1,.02-.02.056.056,0,0,1,.03-.008h0l.009,0Z" transform="translate(-0.234 1.531)" fill="#92278f"/>
    </g>
    <g id="Grupo_179" data-name="Grupo 179" transform="translate(72.744 140.009)">
      <path id="Trazado_2395" data-name="Trazado 2395" d="M.207-1.5a.032.032,0,0,0-.025.011.056.056,0,0,0-.008.033.062.062,0,0,0,.008.035.031.031,0,0,0,.025.011.027.027,0,0,0,.024-.011A.056.056,0,0,0,.24-1.452a.05.05,0,0,0-.009-.033A.028.028,0,0,0,.207-1.5Zm0-.035a.084.084,0,0,1,.061.022.075.075,0,0,1,.022.057.076.076,0,0,1-.022.058.087.087,0,0,1-.061.02.086.086,0,0,1-.061-.02.078.078,0,0,1-.02-.058.077.077,0,0,1,.02-.057A.083.083,0,0,1,.207-1.531Z" transform="translate(-0.125 1.531)" fill="#92278f"/>
    </g>
    <g id="Grupo_180" data-name="Grupo 180" transform="translate(72.911 139.953)">
      <path id="Trazado_2396" data-name="Trazado 2396" d="M-.061-2.02h.047v.148a.069.069,0,0,1-.014.047.055.055,0,0,1-.043.016H-.094V-1.84h.008a.024.024,0,0,0,.019-.006.038.038,0,0,0,.006-.025Zm0-.058h.047v.039H-.061Z" transform="translate(0.094 2.078)" fill="#92278f"/>
    </g>
    <g id="Grupo_181" data-name="Grupo 181" transform="translate(73.028 140.009)">
      <path id="Trazado_2397" data-name="Trazado 2397" d="M.286-1.452v.014H.174a.038.038,0,0,0,.011.025.048.048,0,0,0,.03.008.111.111,0,0,0,.032,0A.254.254,0,0,0,.28-1.422v.036a.2.2,0,0,1-.035.009.21.21,0,0,1-.035,0,.088.088,0,0,1-.063-.02.074.074,0,0,1-.022-.058.073.073,0,0,1,.022-.057.083.083,0,0,1,.061-.022.073.073,0,0,1,.055.022.075.075,0,0,1,.022.057ZM.237-1.468A.031.031,0,0,0,.229-1.49.028.028,0,0,0,.207-1.5a.034.034,0,0,0-.022.008.034.034,0,0,0-.011.024Z" transform="translate(-0.125 1.531)" fill="#92278f"/>
    </g>
    <g id="Grupo_182" data-name="Grupo 182" transform="translate(73.215 140.009)">
      <path id="Trazado_2398" data-name="Trazado 2398" d="M.257-1.523v.039a.1.1,0,0,0-.02-.009.07.07,0,0,0-.02,0,.043.043,0,0,0-.032.013.043.043,0,0,0-.011.032.05.05,0,0,0,.011.035.045.045,0,0,0,.032.011.064.064,0,0,0,.022,0,.088.088,0,0,0,.019-.011v.039a.1.1,0,0,1-.024.006l-.022,0a.094.094,0,0,1-.065-.02.074.074,0,0,1-.022-.058.073.073,0,0,1,.022-.057.091.091,0,0,1,.065-.022.088.088,0,0,1,.022,0l.024,0Z" transform="translate(-0.125 1.531)" fill="#92278f"/>
    </g>
    <g id="Grupo_183" data-name="Grupo 183" transform="translate(73.369 139.969)">
      <path id="Trazado_2399" data-name="Trazado 2399" d="M.1-1.922v.043h.05v.035H.1v.065a.024.024,0,0,0,0,.014.031.031,0,0,0,.017,0H.15v.035H.109a.061.061,0,0,1-.041-.011A.061.061,0,0,1,.056-1.78v-.065H.031v-.035H.056v-.043Z" transform="translate(-0.031 1.922)" fill="#92278f"/>
    </g>
  </g>
</svg>
