<svg xmlns="http://www.w3.org/2000/svg" width="110.258" height="77.169" viewBox="0 0 110.258 77.169">
  <g id="noun-ethics-2451048" transform="translate(-87.466 -96.287)">
    <path id="Trazado_2793" data-name="Trazado 2793" d="M148.792,108.592l2.605-2.573a32.98,32.98,0,0,0-54.553,12.446l-9.278,26.828a1.838,1.838,0,0,0,1.744,2.438H98.5v12.863a12.878,12.878,0,0,0,12.863,12.863h25.726v-3.675H111.361a9.2,9.2,0,0,1-9.188-9.188v-14.7a1.837,1.837,0,0,0-1.838-1.838H91.883l8.435-24.386a29.3,29.3,0,0,1,48.473-11.079Z" fill="#fff"/>
    <path id="Trazado_2794" data-name="Trazado 2794" d="M183.75,234.85a7.349,7.349,0,1,0,2.153-5.2A7.353,7.353,0,0,0,183.75,234.85Zm11.025,0a3.675,3.675,0,1,1-1.076-2.6A3.676,3.676,0,0,1,194.775,234.85Z" transform="translate(-76.064 -103.658)" fill="#fff"/>
    <path id="Trazado_2795" data-name="Trazado 2795" d="M321.987,186.519l-12.2-24.373a14.9,14.9,0,0,0,2.787-.448l.883-.237-.959-3.548-.87.235h0a11.241,11.241,0,0,1-7.554-.649,14.959,14.959,0,0,0-11.691-.367l-1.685.667h0a7.178,7.178,0,0,0,.228-1.7,7.35,7.35,0,1,0-14.7,0,7.158,7.158,0,0,0,.228,1.694l-1.674-.661a14.766,14.766,0,0,0-11.685.356,11.554,11.554,0,0,1-7.558.66l-.882-.239-.959,3.548.889.239a14.169,14.169,0,0,0,2.787.436l-12.192,24.384h.018a1.792,1.792,0,0,0-.212.821,9.2,9.2,0,0,0,9.188,9.188h11.025a9.2,9.2,0,0,0,9.188-9.188,1.785,1.785,0,0,0-.212-.814h.018l-12.373-24.755a13.988,13.988,0,0,0,2.851-.961,11.175,11.175,0,0,1,8.747-.261l4.643,1.838v41.491h-3.675a9.2,9.2,0,0,0-9.188,9.188,1.837,1.837,0,0,0,1.838,1.838H300.12a1.837,1.837,0,0,0,1.838-1.838,9.2,9.2,0,0,0-9.188-9.188h-3.675V162.385l4.655-1.838a11.211,11.211,0,0,1,8.741.266,14,14,0,0,0,2.838.975L292.962,186.52h.019a1.788,1.788,0,0,0-.212.82,9.2,9.2,0,0,0,9.188,9.188h11.025a9.2,9.2,0,0,0,9.188-9.188,1.785,1.785,0,0,0-.212-.814Zm-56.781,6.334H254.18a5.523,5.523,0,0,1-5.2-3.675H270.4a5.523,5.523,0,0,1-5.2,3.675Zm-15.4-7.35,9.89-19.779,9.89,19.779Zm48.165,25.726H269.195a5.523,5.523,0,0,1,5.2-3.675h18.375a5.523,5.523,0,0,1,5.2,3.675Zm-16.224-7.35V160.185a1.838,1.838,0,0,0-.606-1.365,3.621,3.621,0,0,1-1.231-2.718,3.675,3.675,0,1,1,7.35,0,3.62,3.62,0,0,1-1.231,2.718,1.838,1.838,0,0,0-.606,1.365v43.694ZM317.359,185.5h-19.78l9.89-19.779Zm-4.377,7.35H301.956a5.523,5.523,0,0,1-5.2-3.675H318.18a5.523,5.523,0,0,1-5.2,3.675Z" transform="translate(-124.446 -41.448)" fill="#fff"/>
  </g>
</svg>
