<svg xmlns="http://www.w3.org/2000/svg" width="47.122" height="44.98" viewBox="0 0 47.122 44.98">
  <g id="noun-golf-1008663" transform="translate(-103.007 -45.034)">
    <path id="Trazado_2754" data-name="Trazado 2754" d="M120.066,45.04a1.07,1.07,0,0,0-.953,1.087v2.625c0,.017,0,.033,0,.05V64.85c0,.039,0,.078,0,.117V87.852H115.6a5.868,5.868,0,1,0-9.028,0h-2.44c-.034,0-.067,0-.1,0a1.071,1.071,0,1,0,.1,2.14h15.848a1.079,1.079,0,0,0,.435,0h23.839a1.07,1.07,0,1,0,0-2.14h-23v-22.2l28.1-7.807h0a1.07,1.07,0,0,0,0-2.056l-28.1-7.807V46.127a1.07,1.07,0,0,0-1.187-1.087Zm1.187,5.166,23.84,6.62-23.84,6.62ZM111.089,80.347a3.763,3.763,0,0,1,.384,7.506H110.7a3.763,3.763,0,0,1,.384-7.506Z" transform="translate(0)" fill="#92278f"/>
  </g>
</svg>
