<svg xmlns="http://www.w3.org/2000/svg" width="34.534" height="29.549" viewBox="0 0 34.534 29.549">
  <g id="noun-hospital-1035616" transform="translate(-105.491 -81.504)">
    <path id="Trazado_2776" data-name="Trazado 2776" d="M139.426,94.3H131.81V82.1a.613.613,0,0,0-.6-.6H114.3a.613.613,0,0,0-.6.6V94.3h-7.617a.613.613,0,0,0-.6.6v15.552a.613.613,0,0,0,.6.6h33.338a.613.613,0,0,0,.6-.6V94.9a.613.613,0,0,0-.6-.6Zm-.6,15.552H131.81V95.5h7.019Zm-14.954,0v.2h-2.712v-3.948h2.712Zm-3.509-4.546v4.546H114.9V82.7h15.712v27.157h-5.942V105.31ZM106.687,95.5h7.019v14.356h-7.019Z" fill="#92278f"/>
    <path id="Trazado_2777" data-name="Trazado 2777" d="M304.022,126.715h1.834v1.834a.6.6,0,1,0,1.2,0v-1.834h1.834a.6.6,0,0,0,0-1.2h-1.834v-1.834a.6.6,0,0,0-1.2,0v1.834h-1.834a.6.6,0,1,0,0,1.2Z" transform="translate(-183.697 -38.592)" fill="#92278f"/>
    <path id="Trazado_2778" data-name="Trazado 2778" d="M142.263,315.48h-3.669a.4.4,0,0,0,0,.8h3.669a.4.4,0,1,0,0-.8Z" transform="translate(-30.352 -217.148)" fill="#92278f"/>
    <path id="Trazado_2779" data-name="Trazado 2779" d="M142.263,364.28h-3.669a.4.4,0,0,0,0,.8h3.669a.4.4,0,1,0,0-.8Z" transform="translate(-30.352 -262.439)" fill="#92278f"/>
    <path id="Trazado_2780" data-name="Trazado 2780" d="M142.263,412.52h-3.669a.4.4,0,1,0,0,.8h3.669a.4.4,0,1,0,0-.8Z" transform="translate(-30.352 -307.209)" fill="#92278f"/>
    <path id="Trazado_2781" data-name="Trazado 2781" d="M257.246,283.568h12.561a.4.4,0,0,0,0-.8H257.246a.377.377,0,0,0-.4.4A.4.4,0,0,0,257.246,283.568Z" transform="translate(-140.47 -186.791)" fill="#92278f"/>
    <path id="Trazado_2782" data-name="Trazado 2782" d="M257.246,239.768h12.561a.4.4,0,0,0,0-.8H257.246a.377.377,0,0,0-.4.4A.4.4,0,0,0,257.246,239.768Z" transform="translate(-140.47 -146.141)" fill="#92278f"/>
    <path id="Trazado_2783" data-name="Trazado 2783" d="M257.246,327.368h12.561a.4.4,0,0,0,0-.8H257.246a.377.377,0,0,0-.4.4A.4.4,0,0,0,257.246,327.368Z" transform="translate(-140.47 -227.441)" fill="#92278f"/>
    <path id="Trazado_2784" data-name="Trazado 2784" d="M270.253,370.772a.377.377,0,0,0-.4-.4h-12.6a.4.4,0,0,0,0,.8h12.561a.41.41,0,0,0,.439-.4Z" transform="translate(-140.477 -268.094)" fill="#92278f"/>
    <path id="Trazado_2785" data-name="Trazado 2785" d="M492.9,316.281h3.669a.4.4,0,1,0,0-.8H492.9a.377.377,0,0,0-.4.4A.4.4,0,0,0,492.9,316.281Z" transform="translate(-359.172 -217.152)" fill="#92278f"/>
    <path id="Trazado_2786" data-name="Trazado 2786" d="M492.9,365.081h3.669a.4.4,0,1,0,0-.8H492.9a.377.377,0,0,0-.4.4A.4.4,0,0,0,492.9,365.081Z" transform="translate(-359.172 -262.442)" fill="#92278f"/>
    <path id="Trazado_2787" data-name="Trazado 2787" d="M492.9,413.321h3.669a.4.4,0,1,0,0-.8H492.9a.377.377,0,0,0-.4.4A.4.4,0,0,0,492.9,413.321Z" transform="translate(-359.172 -307.213)" fill="#92278f"/>
  </g>
</svg>
