<svg xmlns="http://www.w3.org/2000/svg" width="78.353" height="98.875" viewBox="0 0 78.353 98.875">
  <g id="noun-tax-1663712" transform="translate(-139.995 -17.495)">
    <path id="Trazado_2749" data-name="Trazado 2749" d="M282.676,261.323v-9.794a4.81,4.81,0,0,1,4.9,4.9h3.265a8.082,8.082,0,0,0-8.162-8.162V245h-3.265v3.265a8.162,8.162,0,1,0,0,16.323v9.794a4.81,4.81,0,0,1-4.9-4.9H271.25a8.082,8.082,0,0,0,8.162,8.162v3.265h3.265v-3.265a8.162,8.162,0,0,0,0-16.323Zm-8.162-4.9a4.81,4.81,0,0,1,4.9-4.9v9.794A4.81,4.81,0,0,1,274.515,256.426Zm8.162,17.956v-9.794a4.9,4.9,0,1,1,0,9.794Z" transform="translate(-106.769 -185.064)" fill="#fff"/>
    <path id="Trazado_2750" data-name="Trazado 2750" d="M400.279,389.309a6.529,6.529,0,1,1,6.529-6.529A6.549,6.549,0,0,1,400.279,389.309Zm0-9.794a3.265,3.265,0,1,0,3.265,3.265A3.274,3.274,0,0,0,400.279,379.515Z" transform="translate(-206.417 -291.829)" fill="#fff"/>
    <path id="Trazado_2751" data-name="Trazado 2751" d="M496.529,468.059a6.529,6.529,0,1,1,6.529-6.529A6.549,6.549,0,0,1,496.529,468.059Zm0-9.794a3.265,3.265,0,1,0,3.265,3.265A3.274,3.274,0,0,0,496.529,458.265Z" transform="translate(-284.711 -355.888)" fill="#fff"/>
    <path id="Trazado_2752" data-name="Trazado 2752" d="M190.272,107.274H145.708a2.448,2.448,0,1,1,0-4.9h2.285l2.285-24.485A33.231,33.231,0,0,1,162.195,55.04l6.2-5.06h11.916l6.2,5.06a32.579,32.579,0,0,1,11.916,22.853l.49,4.407a9.484,9.484,0,0,1,3.591,3.591l-.816-8.325A35.957,35.957,0,0,0,188.638,52.59l-4.57-3.754a4.86,4.86,0,0,0-.979-8.162c1.306-3.591,4.734-7.672,10.447-12.242l1.959-1.632-10.447-5.223,1.469-4.081H162.031l1.8,4.244L153.38,26.963l1.959,1.632c5.55,4.734,9.141,8.815,10.447,12.242a5.068,5.068,0,0,0-2.938,4.407,4.88,4.88,0,0,0,1.8,3.754l-4.57,3.754a36.621,36.621,0,0,0-13.059,24.976l-1.959,21.383a5.676,5.676,0,0,0-5.06,5.713,5.784,5.784,0,0,0,5.713,5.713h42.276Zm-9.468-60.4H167.746a1.632,1.632,0,0,1,0-3.265H180.8a1.632,1.632,0,1,1,0,3.265ZM159.257,27.616l5.876-2.938,2.775,6.529,2.938-1.306-3.918-9.141H181.62L177.7,29.9l2.938,1.306,2.775-6.529,5.876,2.938q-7.835,6.856-9.794,12.732h-10.61C167.746,36.594,164.644,32.35,159.257,27.616Z" fill="#fff"/>
    <path id="Trazado_2753" data-name="Trazado 2753" d="M406.785,397.046l-2.675-1.871,22.834-32.635,2.675,1.871Z" transform="translate(-214.844 -280.675)" fill="#fff"/>
  </g>
</svg>
