<svg xmlns="http://www.w3.org/2000/svg" width="101.957" height="102.995" viewBox="0 0 101.957 102.995">
  <g id="noun-emergency-4873053" transform="translate(-106.082 -33.602)">
    <path id="Trazado_2679" data-name="Trazado 2679" d="M311.957,155.559a9.1,9.1,0,0,0-8.082,4.774,1.756,1.756,0,0,0,3.1,1.65,5.594,5.594,0,0,1,4.982-2.913,5.446,5.446,0,0,1,5.576,5.291c0,5.253-3.067,24.929-5.572,28.217-1.939-2.608-4.532-15.853-5.436-25.941a1.756,1.756,0,0,0-3.5.313,161.479,161.479,0,0,0,2.551,16.983c2.308,10.919,4.43,12.423,6.379,12.423,2.119,0,4.421-1.828,6.905-15.091h0a133.8,133.8,0,0,0,2.182-16.9,8.958,8.958,0,0,0-9.087-8.8Z" transform="translate(-155.779 -96.468)" fill="#fff"/>
    <path id="Trazado_2680" data-name="Trazado 2680" d="M314.929,356.775a7.832,7.832,0,1,0,7.512,7.824,7.682,7.682,0,0,0-7.512-7.824Zm0,12.141a4.33,4.33,0,1,1,4-4.317,4.173,4.173,0,0,1-4,4.317Z" transform="translate(-158.751 -255.625)" fill="#fff"/>
    <path id="Trazado_2681" data-name="Trazado 2681" d="M142.8,195.176v6.5a1.755,1.755,0,0,0,1.755,1.755h81.821a1.755,1.755,0,0,0,1.755-1.755v-6.5a7.409,7.409,0,0,0-7.4-7.4H219.5V147.114A29.05,29.05,0,0,0,190.482,118.1h-8.76A29.05,29.05,0,0,0,152.7,147.114v40.661H150.2a7.409,7.409,0,0,0-7.4,7.4Zm13.418-48.062a25.535,25.535,0,0,1,25.507-25.507h8.76a25.535,25.535,0,0,1,25.507,25.507v40.661H156.215Zm-9.906,48.062a3.894,3.894,0,0,1,3.888-3.889h70.531a3.894,3.894,0,0,1,3.889,3.889v4.745h-78.31Z" transform="translate(-29.042 -66.835)" fill="#fff"/>
    <path id="Trazado_2682" data-name="Trazado 2682" d="M413.882,174.086a1.756,1.756,0,0,0-1.5,3.178c5.364,2.523,8.47,11.191,8.5,11.278a1.756,1.756,0,0,0,3.314-1.163c-.146-.413-3.619-10.141-10.319-13.293Z" transform="translate(-241.489 -110.991)" fill="#fff"/>
    <path id="Trazado_2683" data-name="Trazado 2683" d="M529.927,272.56a1.756,1.756,0,0,0,0,3.511h10.229a1.756,1.756,0,0,0,0-3.511Z" transform="translate(-333.873 -189.016)" fill="#fff"/>
    <path id="Trazado_2684" data-name="Trazado 2684" d="M107.837,269.191h10.229a1.756,1.756,0,0,0,0-3.511H107.837a1.756,1.756,0,0,0,0,3.511Z" transform="translate(0 -183.574)" fill="#fff"/>
    <path id="Trazado_2685" data-name="Trazado 2685" d="M185.164,110.284a1.757,1.757,0,1,0,2.484-2.486l-7.233-7.232h0a1.756,1.756,0,1,0-2.483,2.483Z" transform="translate(-56.41 -52.545)" fill="#fff"/>
    <path id="Trazado_2686" data-name="Trazado 2686" d="M348.551,45.585V35.357a1.756,1.756,0,0,0-3.511,0V45.585a1.756,1.756,0,1,0,3.511,0Z" transform="translate(-189.016)" fill="#fff"/>
    <path id="Trazado_2687" data-name="Trazado 2687" d="M478.876,115.164l7.232-7.232a1.756,1.756,0,1,0-2.483-2.482l-7.232,7.232a1.755,1.755,0,1,0,2.482,2.483Z" transform="translate(-292.493 -56.408)" fill="#fff"/>
  </g>
</svg>
