<svg xmlns="http://www.w3.org/2000/svg" width="98.381" height="85.052" viewBox="0 0 98.381 85.052">
  <g id="noun-document-139851" transform="translate(-70.666 -37.958)">
    <path id="Trazado_2630" data-name="Trazado 2630" d="M155.6,96.008,145.107,39.6a2.022,2.022,0,0,0-2.077-1.64H83.23c-2.3,0-6.559.437-9.511,3.717Q70.112,45.611,70.767,52.5c.656,8.09,6.669,13.009,15.852,13.009h.109L96.786,121.37a2.022,2.022,0,0,0,2.077,1.64h57.175a12.861,12.861,0,0,0,13.009-12.026v-.765c-.108-7.762-7.871-13.665-13.446-14.212Zm-4.154,0-43.074-.546A5.386,5.386,0,0,0,104,97.649a7.925,7.925,0,0,0-1.312,6.45,23.668,23.668,0,0,0,1.749,4.154,14.882,14.882,0,0,1,1.53,3.717c.328,2.3-3.389,3.826-5.9,4.591L90.445,63.54v-.546L86.509,42H141.39ZM74.7,52.17c-.328-3.5.328-6.013,1.859-7.762A8.323,8.323,0,0,1,82.247,42l3.607,19.349C81.7,61.244,75.36,59.713,74.7,52.17Zm90.081,58.6a8.771,8.771,0,0,1-8.855,8.2H105.094c3.061-1.53,5.466-4.045,5.029-7.652a15.255,15.255,0,0,0-1.968-5.138,13.511,13.511,0,0,1-1.421-3.17,3.671,3.671,0,0,1,.546-2.843,1.265,1.265,0,0,1,1.093-.546l45.042.546a1.2,1.2,0,0,0,.874,0h1.093c3.5.437,9.4,4.591,9.4,10.058,0,.218,0,.437,0,.546Z" fill="#fff"/>
    <path id="Trazado_2631" data-name="Trazado 2631" d="M241.947,139.8h30.61a2.077,2.077,0,0,0,0-4.153h-30.61a2.075,2.075,0,0,0-2.077,2.077A2.147,2.147,0,0,0,241.947,139.8Z" transform="translate(-139.475 -80.528)" fill="#fff"/>
    <path id="Trazado_2632" data-name="Trazado 2632" d="M252.31,197.457a2.075,2.075,0,0,0,2.077,2.077H285a2.077,2.077,0,1,0,0-4.153h-30.61A2.075,2.075,0,0,0,252.31,197.457Z" transform="translate(-149.729 -129.764)" fill="#fff"/>
    <path id="Trazado_2633" data-name="Trazado 2633" d="M263.717,254.49a2.077,2.077,0,0,0,0,4.153h30.61a2.077,2.077,0,0,0,0-4.153Z" transform="translate(-157.42 -178.488)" fill="#fff"/>
  </g>
</svg>
