<svg xmlns="http://www.w3.org/2000/svg" width="94.459" height="83.179" viewBox="0 0 94.459 83.179">
  <path id="noun-product-3846740" d="M229.608,102.39H161.37a13.11,13.11,0,0,0-13.11,13.11v56.958a13.11,13.11,0,0,0,13.11,13.11h68.238a13.11,13.11,0,0,0,13.11-13.11V115.5a13.11,13.11,0,0,0-13.11-13.11Zm-43.852,5.244h19.466v23.405l-7.966-7.274a2.623,2.623,0,0,0-3.534,0l-7.966,7.274Zm51.719,64.824a7.867,7.867,0,0,1-7.867,7.867H161.37a7.867,7.867,0,0,1-7.867-7.867V115.5a7.868,7.868,0,0,1,7.867-7.867h19.142V137a2.622,2.622,0,0,0,4.389,1.941l10.588-9.691,10.588,9.67a2.625,2.625,0,0,0,1.767.681,2.669,2.669,0,0,0,1.049-.22,2.618,2.618,0,0,0,1.573-2.4V107.612h19.142a7.868,7.868,0,0,1,7.867,7.867Zm-61.86-12.449a2.623,2.623,0,0,1-2.623,2.622h-9.964a2.622,2.622,0,1,1,0-5.244h9.964a2.621,2.621,0,0,1,2.623,2.622Zm0,10.6a2.623,2.623,0,0,1-2.623,2.622h-9.964a2.622,2.622,0,1,1,0-5.244h9.964a2.623,2.623,0,0,1,2.623,2.622Z" transform="translate(-148.26 -102.39)" fill="#fff"/>
</svg>
