<svg xmlns="http://www.w3.org/2000/svg" width="79.19" height="90.284" viewBox="0 0 79.19 90.284">
  <g id="noun-protected-3853631" transform="translate(-131.143 -25.25)">
    <path id="Trazado_2796" data-name="Trazado 2796" d="M210.059,44.886l-.095-.859L170.715,25.25l-39.2,18.777-.095.859c-.064.577-5.83,57.907,38.878,70.529l.421.119.421-.118c44.752-12.623,38.986-69.952,38.923-70.53Zm-39.343,67.42c-38.837-11.314-36.8-59.245-36.283-66.235l36.284-17.38,36.329,17.382c.517,6.987,2.583,54.909-36.331,66.233Z" fill="#fff"/>
    <path id="Trazado_2797" data-name="Trazado 2797" d="M296,248.9l-7.792-7.793-2.195,2.2L296,253.294l14.253-14.257-2.195-2.2Z" transform="translate(-127.393 -174.053)" fill="#fff"/>
  </g>
</svg>
