<svg xmlns="http://www.w3.org/2000/svg" width="103.799" height="109.674" viewBox="0 0 103.799 109.674">
  <g id="noun-performance-3085724" transform="translate(-103.878 -17.363)">
    <path id="Trazado_2494" data-name="Trazado 2494" d="M200.069,40.387a97.788,97.788,0,0,1-95.009,74.992,1.181,1.181,0,1,0,0,2.363,100.172,100.172,0,0,0,97.135-76.078l-.72-2.681Z" transform="translate(0 -17.061)" fill="#fff"/>
    <path id="Trazado_2495" data-name="Trazado 2495" d="M203.95,260.472h-2.728V190.63a1.181,1.181,0,0,0-2.363,0v69.842H183.4V214.85a1.181,1.181,0,1,0-2.363,0v45.609H165.592V227.592a1.181,1.181,0,1,0-2.363,0V260.47H147.783V235.456a1.181,1.181,0,0,0-2.363,0V260.47H129.962v-20.4a1.181,1.181,0,1,0-2.363,0v20.4H112.153V242.187a1.181,1.181,0,1,0-2.363,0v18.281h-4.676a1.181,1.181,0,0,0,0,2.363h98.835a1.181,1.181,0,1,0,0-2.363Z" transform="translate(-0.043 -135.795)" fill="#fff"/>
    <path id="Trazado_2496" data-name="Trazado 2496" d="M525.576,35.821,520.64,17.363l-13.51,13.5a1.177,1.177,0,0,0,1.665,1.665l9.223-9.212c.307-1.3.591-2.6.85-3.909a1.179,1.179,0,1,1,2.315.448c-.307,1.594-.661,3.165-1.051,4.736L523.3,36.424a1.174,1.174,0,0,0,1.146.874,1.348,1.348,0,0,0,.307-.035,1.175,1.175,0,0,0,.826-1.441Z" transform="translate(-317.938)" fill="#fff"/>
    <path id="Trazado_2497" data-name="Trazado 2497" d="M562.29,22.6a1.176,1.176,0,0,0-1.382.933c-.259,1.311-.543,2.622-.85,3.909l1.405-1.405.72,2.681c.378-1.559.744-3.141,1.051-4.736a1.2,1.2,0,0,0-.945-1.381Z" transform="translate(-359.977 -4.121)" fill="#fff"/>
  </g>
</svg>
