<svg xmlns="http://www.w3.org/2000/svg" width="37.168" height="46.392" viewBox="0 0 37.168 46.392">
  <path id="noun-insurance-4767079" d="M177.919,42.016a1.376,1.376,0,0,0-.344.043l-17.214,4.472a1.365,1.365,0,0,0-1.026,1.319V70.536c0,2.336,1.215,4.607,2.94,6.777a32.514,32.514,0,0,0,6.5,6.015,49.3,49.3,0,0,0,8.582,4.955,1.363,1.363,0,0,0,1.138,0,49.362,49.362,0,0,0,8.574-4.955,32.563,32.563,0,0,0,6.506-6.015c1.725-2.17,2.932-4.442,2.932-6.777V47.851a1.364,1.364,0,0,0-1.018-1.319l-17.225-4.472a1.376,1.376,0,0,0-.341-.043Zm0,2.772,15.866,4.12V70.536a9.243,9.243,0,0,1-2.348,5.077,30.156,30.156,0,0,1-5.954,5.49,41.228,41.228,0,0,1-7.553,4.371,41.111,41.111,0,0,1-7.566-4.371,30.155,30.155,0,0,1-5.954-5.49,9.235,9.235,0,0,1-2.345-5.077V48.909Zm7.545,12.265a1.363,1.363,0,0,0-1.047.48l-8.23,9.64-4.312-4.755a1.369,1.369,0,1,0-2.026,1.842l5.36,5.893a1.365,1.365,0,0,0,2.044-.029l9.237-10.818a1.366,1.366,0,0,0-1.026-2.252Z" transform="translate(-159.336 -42.016)" fill="#92278f"/>
</svg>
