<svg xmlns="http://www.w3.org/2000/svg" width="91.18" height="102.612" viewBox="0 0 91.18 102.612">
  <g id="noun-life-insurance-3390138" transform="translate(-140.052 -43.79)">
    <path id="Trazado_2726" data-name="Trazado 2726" d="M230.608,65.977l-.7-5.34h0a1.9,1.9,0,0,0-1.9-1.653A64.838,64.838,0,0,1,188.1,45.15l-1.217-.95a1.9,1.9,0,0,0-2.357,0l-1.217.95h0a64.841,64.841,0,0,1-40.039,13.834,1.9,1.9,0,0,0-1.9,1.653l-.7,5.34a77.781,77.781,0,0,0,43.08,79.68l1.122.551a1.9,1.9,0,0,0,1.672,0l1.122-.551h0a77.777,77.777,0,0,0,42.946-79.678Zm-44.675,76.259-.285.152-.285-.152a73.942,73.942,0,0,1-40.894-75.764l.475-3.8a68.61,68.61,0,0,0,40.705-14.537,68.6,68.6,0,0,0,40.705,14.651l.475,3.8a73.941,73.941,0,0,1-40.895,75.651Z" fill="#fff"/>
    <path id="Trazado_2727" data-name="Trazado 2727" d="M288.707,181.452H275.4v-13.3a1.9,1.9,0,0,0-1.9-1.9H262.1a1.9,1.9,0,0,0-1.9,1.9v13.3H246.9a1.9,1.9,0,0,0-1.9,1.9v11.4a1.9,1.9,0,0,0,1.9,1.9h13.3v13.3a1.9,1.9,0,0,0,1.9,1.9h11.4a1.9,1.9,0,0,0,1.9-1.9v-13.3h13.3a1.9,1.9,0,0,0,1.9-1.9v-11.4a1.9,1.9,0,0,0-1.9-1.9Zm-1.9,11.4H273.5a1.9,1.9,0,0,0-1.9,1.9v13.3H264v-13.3a1.9,1.9,0,0,0-1.9-1.9H248.8v-7.6h13.3a1.9,1.9,0,0,0,1.9-1.9v-13.3h7.6v13.3a1.9,1.9,0,0,0,1.9,1.9h13.3Z" transform="translate(-82.156 -95.865)" fill="#fff"/>
  </g>
</svg>
