<svg xmlns="http://www.w3.org/2000/svg" width="86.608" height="98.875" viewBox="0 0 86.608 98.875">
  <g id="noun-check-mark-shield-309630" transform="translate(-115.478 -12.25)">
    <path id="Trazado_2492" data-name="Trazado 2492" d="M158.78,111.125l-.969-.323C114.19,93.676,115.482,30.345,115.482,27.76V26.467L117.1,25.5a72.2,72.2,0,0,1,83.365,0l1.616.969V27.76c0,2.585,1.616,65.917-42.329,83.042ZM120.329,29.052c0,8.724,1.939,61.716,38.451,76.9,36.513-15.187,38.451-68.178,38.451-76.9a67.812,67.812,0,0,0-76.9,0Z" fill="#fff"/>
    <path id="Trazado_2493" data-name="Trazado 2493" d="M275.694,219.13,266,209.437l3.554-3.231,6.139,6.139,17.772-18.095,3.554,3.554Z" transform="translate(-122.73 -148.395)" fill="#fff"/>
  </g>
</svg>
