<svg xmlns="http://www.w3.org/2000/svg" width="78.713" height="108.688" viewBox="0 0 78.713 108.688">
  <g id="noun-solution-1249075" transform="translate(-147.217 0.001)">
    <path id="Trazado_2798" data-name="Trazado 2798" d="M228.589,110.61A29.24,29.24,0,1,1,257.83,81.371,29.272,29.272,0,0,1,228.589,110.61Zm0-54.7a25.463,25.463,0,1,0,25.464,25.464,25.493,25.493,0,0,0-25.464-25.464Z" transform="translate(-42.015 -42.013)" fill="#fff"/>
    <path id="Trazado_2799" data-name="Trazado 2799" d="M289.661,176.1,278.253,164.69l2.671-2.671,8.737,8.735,13.771-13.773,2.671,2.67Z" transform="translate(-105.604 -126.515)" fill="#fff"/>
    <path id="Trazado_2800" data-name="Trazado 2800" d="M207.2,86.206H165.951V72.87a39.357,39.357,0,1,1,41.246,0ZM169.728,82.43h33.691V70.71l.942-.545a35.58,35.58,0,1,0-35.577,0l.942.545V82.43Z" fill="#fff"/>
    <path id="Trazado_2801" data-name="Trazado 2801" d="M243.75,463.33H285v3.776H243.75Z" transform="translate(-77.797 -373.405)" fill="#fff"/>
    <path id="Trazado_2802" data-name="Trazado 2802" d="M243.75,501.93H285v3.777H243.75Z" transform="translate(-77.797 -404.513)" fill="#fff"/>
    <path id="Trazado_2803" data-name="Trazado 2803" d="M307.45,540.54h16.516v3.777H307.45Z" transform="translate(-129.134 -435.63)" fill="#fff"/>
  </g>
</svg>
